<mxfile host="app.diagrams.net" modified="2024-06-20T13:27:02.219Z" agent="Mozilla/5.0 (Windows NT 10.0; Win64; x64) AppleWebKit/537.36 (KHTML, like Gecko) Chrome/126.0.0.0 Safari/537.36" etag="VH74-XftBuQbW9Q5B1HN" version="24.5.5" type="github">
  <diagram id="C5RBs43oDa-KdzZeNtuy" name="Page-1">
    <mxGraphModel dx="849" dy="434" grid="1" gridSize="10" guides="1" tooltips="1" connect="1" arrows="1" fold="1" page="1" pageScale="1" pageWidth="827" pageHeight="1169" math="0" shadow="0">
      <root>
        <mxCell id="WIyWlLk6GJQsqaUBKTNV-0" />
        <mxCell id="WIyWlLk6GJQsqaUBKTNV-1" parent="WIyWlLk6GJQsqaUBKTNV-0" />
        <mxCell id="OAOlCr3tdm_xH_URKYBV-16" value="&amp;lt;&amp;lt;Interface&amp;gt;&amp;gt;&lt;div&gt;NavegadorInternet&lt;/div&gt;" style="swimlane;fontStyle=1;align=center;verticalAlign=middle;childLayout=stackLayout;horizontal=1;startSize=29;horizontalStack=0;resizeParent=1;resizeParentMax=0;resizeLast=0;collapsible=0;marginBottom=0;html=1;whiteSpace=wrap;" vertex="1" parent="WIyWlLk6GJQsqaUBKTNV-1">
          <mxGeometry x="540" y="370" width="160" height="104" as="geometry" />
        </mxCell>
        <mxCell id="OAOlCr3tdm_xH_URKYBV-18" value="&lt;span style=&quot;text-align: center;&quot;&gt;+exibirPagina():void&lt;/span&gt;" style="text;html=1;strokeColor=none;fillColor=none;align=left;verticalAlign=middle;spacingLeft=4;spacingRight=4;overflow=hidden;rotatable=0;points=[[0,0.5],[1,0.5]];portConstraint=eastwest;whiteSpace=wrap;" vertex="1" parent="OAOlCr3tdm_xH_URKYBV-16">
          <mxGeometry y="29" width="160" height="25" as="geometry" />
        </mxCell>
        <mxCell id="OAOlCr3tdm_xH_URKYBV-60" value="&lt;div style=&quot;text-align: center;&quot;&gt;&lt;span style=&quot;background-color: initial;&quot;&gt;+adionarPagina():void&lt;/span&gt;&lt;/div&gt;" style="text;html=1;strokeColor=none;fillColor=none;align=left;verticalAlign=middle;spacingLeft=4;spacingRight=4;overflow=hidden;rotatable=0;points=[[0,0.5],[1,0.5]];portConstraint=eastwest;whiteSpace=wrap;" vertex="1" parent="OAOlCr3tdm_xH_URKYBV-16">
          <mxGeometry y="54" width="160" height="25" as="geometry" />
        </mxCell>
        <mxCell id="OAOlCr3tdm_xH_URKYBV-61" value="&lt;div style=&quot;text-align: center;&quot;&gt;+atualizarPagina():void&lt;/div&gt;" style="text;html=1;strokeColor=none;fillColor=none;align=left;verticalAlign=middle;spacingLeft=4;spacingRight=4;overflow=hidden;rotatable=0;points=[[0,0.5],[1,0.5]];portConstraint=eastwest;whiteSpace=wrap;" vertex="1" parent="OAOlCr3tdm_xH_URKYBV-16">
          <mxGeometry y="79" width="160" height="25" as="geometry" />
        </mxCell>
        <mxCell id="OAOlCr3tdm_xH_URKYBV-25" value="" style="html=1;verticalAlign=bottom;labelBackgroundColor=none;endArrow=block;endFill=1;rounded=0;" edge="1" parent="WIyWlLk6GJQsqaUBKTNV-1">
          <mxGeometry width="160" relative="1" as="geometry">
            <mxPoint x="520" y="290" as="sourcePoint" />
            <mxPoint x="620" y="360" as="targetPoint" />
            <Array as="points">
              <mxPoint x="620" y="290" />
            </Array>
          </mxGeometry>
        </mxCell>
        <mxCell id="OAOlCr3tdm_xH_URKYBV-26" value="&amp;lt;&amp;lt;Interface&amp;gt;&amp;gt;&lt;div&gt;ReprodutorMusical&lt;/div&gt;" style="swimlane;fontStyle=1;align=center;verticalAlign=middle;childLayout=stackLayout;horizontal=1;startSize=29;horizontalStack=0;resizeParent=1;resizeParentMax=0;resizeLast=0;collapsible=0;marginBottom=0;html=1;whiteSpace=wrap;" vertex="1" parent="WIyWlLk6GJQsqaUBKTNV-1">
          <mxGeometry x="140" y="370" width="160" height="104" as="geometry" />
        </mxCell>
        <mxCell id="OAOlCr3tdm_xH_URKYBV-28" value="+tocar():void" style="text;html=1;strokeColor=none;fillColor=none;align=left;verticalAlign=middle;spacingLeft=4;spacingRight=4;overflow=hidden;rotatable=0;points=[[0,0.5],[1,0.5]];portConstraint=eastwest;whiteSpace=wrap;" vertex="1" parent="OAOlCr3tdm_xH_URKYBV-26">
          <mxGeometry y="29" width="160" height="25" as="geometry" />
        </mxCell>
        <mxCell id="OAOlCr3tdm_xH_URKYBV-53" value="+pausar():void" style="text;html=1;strokeColor=none;fillColor=none;align=left;verticalAlign=middle;spacingLeft=4;spacingRight=4;overflow=hidden;rotatable=0;points=[[0,0.5],[1,0.5]];portConstraint=eastwest;whiteSpace=wrap;" vertex="1" parent="OAOlCr3tdm_xH_URKYBV-26">
          <mxGeometry y="54" width="160" height="25" as="geometry" />
        </mxCell>
        <mxCell id="OAOlCr3tdm_xH_URKYBV-54" value="+selecionarMusica():void" style="text;html=1;strokeColor=none;fillColor=none;align=left;verticalAlign=middle;spacingLeft=4;spacingRight=4;overflow=hidden;rotatable=0;points=[[0,0.5],[1,0.5]];portConstraint=eastwest;whiteSpace=wrap;" vertex="1" parent="OAOlCr3tdm_xH_URKYBV-26">
          <mxGeometry y="79" width="160" height="25" as="geometry" />
        </mxCell>
        <mxCell id="OAOlCr3tdm_xH_URKYBV-32" value="Iphone" style="swimlane;fontStyle=0;childLayout=stackLayout;horizontal=1;startSize=26;fillColor=none;horizontalStack=0;resizeParent=1;resizeParentMax=0;resizeLast=0;collapsible=1;marginBottom=0;whiteSpace=wrap;html=1;" vertex="1" parent="WIyWlLk6GJQsqaUBKTNV-1">
          <mxGeometry x="320" y="160" width="200" height="234" as="geometry" />
        </mxCell>
        <mxCell id="OAOlCr3tdm_xH_URKYBV-33" value="+ ligar ():void&lt;div&gt;&lt;br&gt;&lt;/div&gt;" style="text;strokeColor=none;fillColor=none;align=left;verticalAlign=top;spacingLeft=4;spacingRight=4;overflow=hidden;rotatable=0;points=[[0,0.5],[1,0.5]];portConstraint=eastwest;whiteSpace=wrap;html=1;" vertex="1" parent="OAOlCr3tdm_xH_URKYBV-32">
          <mxGeometry y="26" width="200" height="26" as="geometry" />
        </mxCell>
        <mxCell id="OAOlCr3tdm_xH_URKYBV-34" value="+ atender (): void" style="text;strokeColor=none;fillColor=none;align=left;verticalAlign=top;spacingLeft=4;spacingRight=4;overflow=hidden;rotatable=0;points=[[0,0.5],[1,0.5]];portConstraint=eastwest;whiteSpace=wrap;html=1;" vertex="1" parent="OAOlCr3tdm_xH_URKYBV-32">
          <mxGeometry y="52" width="200" height="26" as="geometry" />
        </mxCell>
        <mxCell id="OAOlCr3tdm_xH_URKYBV-35" value="+ iniciar (): void" style="text;strokeColor=none;fillColor=none;align=left;verticalAlign=top;spacingLeft=4;spacingRight=4;overflow=hidden;rotatable=0;points=[[0,0.5],[1,0.5]];portConstraint=eastwest;whiteSpace=wrap;html=1;" vertex="1" parent="OAOlCr3tdm_xH_URKYBV-32">
          <mxGeometry y="78" width="200" height="26" as="geometry" />
        </mxCell>
        <mxCell id="OAOlCr3tdm_xH_URKYBV-36" value="+ tocar(): void" style="text;strokeColor=none;fillColor=none;align=left;verticalAlign=top;spacingLeft=4;spacingRight=4;overflow=hidden;rotatable=0;points=[[0,0.5],[1,0.5]];portConstraint=eastwest;whiteSpace=wrap;html=1;" vertex="1" parent="OAOlCr3tdm_xH_URKYBV-32">
          <mxGeometry y="104" width="200" height="26" as="geometry" />
        </mxCell>
        <mxCell id="OAOlCr3tdm_xH_URKYBV-37" value="+ selecionarMusica(): void" style="text;strokeColor=none;fillColor=none;align=left;verticalAlign=top;spacingLeft=4;spacingRight=4;overflow=hidden;rotatable=0;points=[[0,0.5],[1,0.5]];portConstraint=eastwest;whiteSpace=wrap;html=1;" vertex="1" parent="OAOlCr3tdm_xH_URKYBV-32">
          <mxGeometry y="130" width="200" height="26" as="geometry" />
        </mxCell>
        <mxCell id="OAOlCr3tdm_xH_URKYBV-38" value="+exibirPagina (): void" style="text;strokeColor=none;fillColor=none;align=left;verticalAlign=top;spacingLeft=4;spacingRight=4;overflow=hidden;rotatable=0;points=[[0,0.5],[1,0.5]];portConstraint=eastwest;whiteSpace=wrap;html=1;" vertex="1" parent="OAOlCr3tdm_xH_URKYBV-32">
          <mxGeometry y="156" width="200" height="26" as="geometry" />
        </mxCell>
        <mxCell id="OAOlCr3tdm_xH_URKYBV-39" value="+adicionarNovaAba(): void" style="text;strokeColor=none;fillColor=none;align=left;verticalAlign=top;spacingLeft=4;spacingRight=4;overflow=hidden;rotatable=0;points=[[0,0.5],[1,0.5]];portConstraint=eastwest;whiteSpace=wrap;html=1;" vertex="1" parent="OAOlCr3tdm_xH_URKYBV-32">
          <mxGeometry y="182" width="200" height="26" as="geometry" />
        </mxCell>
        <mxCell id="OAOlCr3tdm_xH_URKYBV-40" value="+atualizarPagina(): void" style="text;strokeColor=none;fillColor=none;align=left;verticalAlign=top;spacingLeft=4;spacingRight=4;overflow=hidden;rotatable=0;points=[[0,0.5],[1,0.5]];portConstraint=eastwest;whiteSpace=wrap;html=1;" vertex="1" parent="OAOlCr3tdm_xH_URKYBV-32">
          <mxGeometry y="208" width="200" height="26" as="geometry" />
        </mxCell>
        <mxCell id="OAOlCr3tdm_xH_URKYBV-42" value="" style="html=1;verticalAlign=bottom;labelBackgroundColor=none;endArrow=block;endFill=1;rounded=0;exitX=-0.013;exitY=0.028;exitDx=0;exitDy=0;exitPerimeter=0;" edge="1" parent="WIyWlLk6GJQsqaUBKTNV-1" source="OAOlCr3tdm_xH_URKYBV-37">
          <mxGeometry width="160" relative="1" as="geometry">
            <mxPoint x="120" y="290" as="sourcePoint" />
            <mxPoint x="220" y="360" as="targetPoint" />
            <Array as="points">
              <mxPoint x="220" y="290" />
            </Array>
          </mxGeometry>
        </mxCell>
        <mxCell id="OAOlCr3tdm_xH_URKYBV-43" value="" style="html=1;verticalAlign=bottom;labelBackgroundColor=none;endArrow=block;endFill=1;rounded=0;" edge="1" parent="WIyWlLk6GJQsqaUBKTNV-1">
          <mxGeometry width="160" relative="1" as="geometry">
            <mxPoint x="419.5" y="394" as="sourcePoint" />
            <mxPoint x="420" y="470" as="targetPoint" />
          </mxGeometry>
        </mxCell>
        <mxCell id="OAOlCr3tdm_xH_URKYBV-44" value="&amp;lt;&amp;lt;Interface&amp;gt;&amp;gt;&lt;div&gt;AparelhoTelefonico&lt;/div&gt;" style="swimlane;fontStyle=1;align=center;verticalAlign=middle;childLayout=stackLayout;horizontal=1;startSize=29;horizontalStack=0;resizeParent=1;resizeParentMax=0;resizeLast=0;collapsible=0;marginBottom=0;html=1;whiteSpace=wrap;" vertex="1" parent="WIyWlLk6GJQsqaUBKTNV-1">
          <mxGeometry x="344" y="480" width="156" height="104" as="geometry" />
        </mxCell>
        <mxCell id="OAOlCr3tdm_xH_URKYBV-46" value="&lt;span style=&quot;text-align: center;&quot;&gt;+ligar():void&lt;/span&gt;" style="text;html=1;strokeColor=none;fillColor=none;align=left;verticalAlign=middle;spacingLeft=4;spacingRight=4;overflow=hidden;rotatable=0;points=[[0,0.5],[1,0.5]];portConstraint=eastwest;whiteSpace=wrap;" vertex="1" parent="OAOlCr3tdm_xH_URKYBV-44">
          <mxGeometry y="29" width="156" height="25" as="geometry" />
        </mxCell>
        <mxCell id="OAOlCr3tdm_xH_URKYBV-55" value="+atender():void" style="text;html=1;strokeColor=none;fillColor=none;align=left;verticalAlign=middle;spacingLeft=4;spacingRight=4;overflow=hidden;rotatable=0;points=[[0,0.5],[1,0.5]];portConstraint=eastwest;whiteSpace=wrap;" vertex="1" parent="OAOlCr3tdm_xH_URKYBV-44">
          <mxGeometry y="54" width="156" height="25" as="geometry" />
        </mxCell>
        <mxCell id="OAOlCr3tdm_xH_URKYBV-56" value="+iniciarCorreiioVoz():void" style="text;html=1;strokeColor=none;fillColor=none;align=left;verticalAlign=middle;spacingLeft=4;spacingRight=4;overflow=hidden;rotatable=0;points=[[0,0.5],[1,0.5]];portConstraint=eastwest;whiteSpace=wrap;" vertex="1" parent="OAOlCr3tdm_xH_URKYBV-44">
          <mxGeometry y="79" width="156" height="25" as="geometry" />
        </mxCell>
      </root>
    </mxGraphModel>
  </diagram>
</mxfile>
